<?xml version="1.0" encoding="UTF-8"?>
<!DOCTYPE svg PUBLIC "-//W3C//DTD SVG 1.1//EN" "http://www.w3.org/Graphics/SVG/1.1/DTD/svg11.dtd">
<svg version="1.1" xmlns="http://www.w3.org/2000/svg" xmlns:xlink="http://www.w3.org/1999/xlink" x="0" y="0" width="360" height="600" viewBox="0, 0, 360, 600">
  <g id="Layer_1">
    <path d="M167.402,11.715 C144.011,15.505 122.319,32.623 111.866,55.491 C98.798,84.109 105.201,118.737 127.546,141.083 C142.182,155.718 158.647,162.382 179.816,162.382 C213.66,162.252 241.494,141.867 251.948,109.329 C255.476,98.352 255.737,76.922 252.471,65.945 C248.812,53.531 242.539,43.208 233.392,33.799 C223.984,24.26 216.274,19.295 203.991,14.852 C194.713,11.454 177.594,10.017 167.402,11.715" fill-opacity="0" stroke="#000000" stroke-width="20" stroke-opacity="0.966"/>
    <path d="M100.497,189.766 C88.998,193.163 79.85,198.39 70.573,207.145 C57.375,219.298 51.886,229.621 44.83,255.103 C35.683,288.163 26.013,322.269 18.956,347.097 C14.775,362.125 11.247,376.499 11.247,379.112 C11.247,400.543 33.461,416.354 52.54,408.514 C57.897,406.292 65.346,400.02 67.828,395.577 C69.135,393.094 84.293,356.375 92.526,335.728 C94.747,330.24 96.838,325.797 97.099,326.189 C97.622,326.712 95.531,423.28 93.571,485.089 C91.088,561.272 91.48,566.891 99.321,577.214 C110.428,591.719 136.302,592.895 148.585,579.566 C156.033,571.595 157.079,568.589 165.442,528.211 C176.026,476.726 178.64,465.096 179.555,463.397 C180.6,461.567 183.997,476.203 196.673,536.313 C200.332,553.431 204.383,569.635 205.82,572.248 C216.274,592.895 247.113,594.855 261.618,575.907 C268.151,567.283 268.543,562.709 267.367,515.666 C266.714,492.014 265.538,444.972 264.885,411.258 C264.101,377.413 263.055,344.484 262.663,338.081 C262.14,329.848 262.402,326.712 263.316,327.627 C264.101,328.411 268.151,337.558 272.464,347.881 C294.156,400.673 293.502,399.367 300.297,404.463 C309.706,411.389 320.029,412.303 330.875,407.207 C341.851,401.98 348.254,391.788 348.385,379.112 C348.385,375.845 346.686,367.352 344.596,360.164 C342.505,353.108 337.801,336.643 334.272,323.706 C307.746,228.053 308.138,229.491 298.337,216.423 C291.019,206.753 283.048,200.089 272.986,195.123 C257.175,187.283 256.129,187.152 179.032,187.283 C114.871,187.283 107.945,187.544 100.497,189.766" fill-opacity="0" stroke="#000000" stroke-width="20" stroke-opacity="0.966"/>
  </g>
</svg>
