<?xml version="1.0" standalone="no"?>
<!DOCTYPE svg PUBLIC "-//W3C//DTD SVG 20010904//EN"
 "http://www.w3.org/TR/2001/REC-SVG-20010904/DTD/svg10.dtd">
<svg version="1.0" xmlns="http://www.w3.org/2000/svg"
 width="259.000000pt" height="432.000000pt" viewBox="0 0 259.000000 432.000000"
 preserveAspectRatio="xMidYMid meet">
<metadata>
Created by potrace 1.16, written by Peter Selinger 2001-2019
</metadata>
<g transform="translate(0.000000,432.000000) scale(0.100000,-0.100000)"
fill="none" stroke="#555555" stroke-width="80" stroke-linecap="round" stroke-linejoin="round">
<path d="M1205 4310 c-179 -29 -345 -160 -425 -335 -100 -219 -51 -484 120
-655 112 -112 238 -163 400 -163 259 1 472 157 552 406 27 84 29 248 4 332
-28 95 -76 174 -146 246 -72 73 -131 111 -225 145 -71 26 -202 37 -280 24z
m254 -140 c148 -57 264 -194 292 -348 47 -249 -125 -497 -376 -543 -139 -25
-292 25 -395 131 -65 66 -105 145 -128 249 -15 67 -15 80 0 150 34 163 124
283 260 345 40 19 87 36 103 39 58 10 190 -3 244 -23z"/>
<path d="M693 3060 c-88 -26 -158 -66 -229 -133 -101 -93 -143 -172 -197 -367
-70 -253 -144 -514 -198 -704 -32 -115 -59 -225 -59 -245 0 -164 170 -285 316
-225 41 17 98 65 117 99 10 19 126 300 189 458 17 42 33 76 35 73 4 -4 -12
-743 -27 -1216 -19 -583 -16 -626 44 -705 85 -111 283 -120 377 -18 57 61 65
84 129 393 81 394 101 483 108 496 8 14 34 -98 131 -558 28 -131 59 -255 70
-275 80 -158 316 -173 427 -28 50 66 53 101 44 461 -5 181 -14 541 -19 799 -6
259 -14 511 -17 560 -4 63 -2 87 5 80 6 -6 37 -76 70 -155 166 -404 161 -394
213 -433 72 -53 151 -60 234 -21 84 40 133 118 134 215 0 25 -13 90 -29 145
-16 54 -52 180 -79 279 -203 732 -200 721 -275 821 -56 74 -117 125 -194 163
-121 60 -129 61 -719 60 -491 0 -544 -2 -601 -19z m1188 -116 c118 -35 222
-121 278 -231 16 -32 55 -151 86 -263 56 -201 112 -401 182 -650 52 -185 53
-189 40 -229 -13 -37 -66 -81 -99 -81 -10 0 -34 7 -54 15 -28 12 -40 26 -64
79 -41 90 -137 325 -236 576 -110 281 -111 284 -151 288 -51 5 -63 -22 -57
-137 4 -87 13 -439 44 -1670 10 -378 9 -406 -7 -439 -26 -53 -64 -76 -122 -76
-56 0 -94 21 -116 64 -15 30 -53 194 -145 640 -27 129 -56 269 -65 310 -9 41
-21 101 -27 133 -12 66 -40 94 -83 83 -32 -8 -40 -25 -59 -121 -79 -411 -214
-1025 -231 -1051 -54 -83 -179 -80 -229 5 -17 29 -19 53 -17 229 0 108 3 247
6 307 3 61 10 294 15 520 5 226 15 580 21 787 12 360 11 379 -6 398 -22 25
-57 26 -78 3 -13 -16 -62 -134 -307 -743 -58 -143 -66 -158 -103 -180 -39 -24
-59 -25 -104 -3 -25 11 -41 29 -54 58 l-18 41 58 204 c32 113 89 313 126 445
103 372 128 446 169 507 39 59 95 110 161 147 90 49 96 50 661 50 458 1 538
-1 585 -15z"/>
</g>
</svg>
